<?xml version="1.0" encoding="UTF-8" standalone="no"?>
<svg
   xmlns:dc="http://purl.org/dc/elements/1.1/"
   xmlns:cc="http://creativecommons.org/ns#"
   xmlns:rdf="http://www.w3.org/1999/02/22-rdf-syntax-ns#"
   xmlns:svg="http://www.w3.org/2000/svg"
   xmlns="http://www.w3.org/2000/svg"
   id="svg8"
   version="1.1"
   viewBox="0 0 38.126129 13.569418"
   height="13.569418mm"
   width="38.126129mm">
  <defs
     id="defs2" />
  <metadata
     id="metadata5">
    <rdf:RDF>
      <cc:Work
         rdf:about="">
        <dc:format>image/svg+xml</dc:format>
        <dc:type
           rdf:resource="http://purl.org/dc/dcmitype/StillImage" />
        <dc:title></dc:title>
      </cc:Work>
    </rdf:RDF>
  </metadata>
  <g
     transform="translate(-0.113021,-0.008913)"
     id="layer1">
    <g
       transform="translate(-17.883497,-61.887094)"
       id="text4524"
       style="font-style:normal;font-weight:normal;font-size:10.58333302px;line-height:1.25;font-family:sans-serif;letter-spacing:0px;word-spacing:0px;fill:#fff;fill-opacity:1;stroke:none;stroke-width:0.26458332"
       aria-label="collab">
      <path
         id="path4526"
         style="font-style:normal;font-variant:normal;font-weight:normal;font-stretch:normal;font-family:'Microsoft YaHei';-inkscape-font-specification:'Microsoft YaHei';stroke-width:0.41777164"
         d="m 24.834265,74.845295 q -1.03627,0.62013 -2.496839,0.62013 -1.958304,0 -3.149606,-1.256578 -1.191302,-1.256579 -1.191302,-3.255682 0,-2.219412 1.281058,-3.573905 1.289218,-1.362655 3.443351,-1.362655 1.24026,0 2.121497,0.440619 v 1.582963 q -0.954673,-0.701727 -2.121497,-0.701727 -1.370813,0 -2.23573,0.954675 -0.856758,0.946513 -0.856758,2.529476 0,1.558485 0.8078,2.439721 0.815961,0.881238 2.194933,0.881238 1.166823,0 2.203093,-0.767003 z" />
      <path
         id="path4528"
         style="font-style:normal;font-variant:normal;font-weight:normal;font-stretch:normal;font-family:'Microsoft YaHei';-inkscape-font-specification:'Microsoft YaHei';stroke-width:0.41777164"
         d="m 25.019878,70.83893 q 0,-2.235731 1.248419,-3.524947 1.24842,-1.297378 3.386235,-1.297378 2.031741,0 3.182246,1.24842 1.158663,1.240259 1.158663,3.435192 0,2.137817 -1.2321,3.451512 -1.2321,1.313696 -3.304638,1.313696 -2.023583,0 -3.231204,-1.272897 -1.207621,-1.272899 -1.207621,-3.353598 z m 1.63192,-0.04896 q 0,1.558484 0.783322,2.456041 0.791483,0.897557 2.121497,0.897557 1.370813,0 2.088859,-0.873078 0.718045,-0.881236 0.718045,-2.521318 0,-1.64824 -0.718045,-2.529476 -0.718046,-0.881238 -2.088859,-0.881238 -1.346335,0 -2.129655,0.922036 -0.775164,0.922035 -0.775164,2.529476 z" />
      <path
         id="path4530"
         style="font-style:normal;font-variant:normal;font-weight:normal;font-stretch:normal;font-family:'Microsoft YaHei';-inkscape-font-specification:'Microsoft YaHei';stroke-width:0.41777164"
         d="M 34.584563,75.253275 V 61.896007 h 1.599282 v 13.357268 z" />
      <path
         id="path4532"
         style="font-style:normal;font-variant:normal;font-weight:normal;font-stretch:normal;font-family:'Microsoft YaHei';-inkscape-font-specification:'Microsoft YaHei';stroke-width:0.41777164"
         d="M 37.352299,75.253275 V 61.896007 h 1.599282 v 13.357268 z" />
      <path
         id="path4534"
         style="font-style:normal;font-variant:normal;font-weight:normal;font-stretch:normal;font-family:'Microsoft YaHei';-inkscape-font-specification:'Microsoft YaHei';stroke-width:0.41777164"
         d="m 40.340346,66.857045 q 1.346334,-0.84044 3.108808,-0.84044 3.263841,0 3.263841,3.427033 v 5.809637 h -1.582962 v -1.395292 h -0.0408 q -0.938354,1.607442 -2.766105,1.607442 -1.313695,0 -2.088857,-0.709885 -0.775162,-0.709886 -0.775162,-1.917506 0,-2.529477 2.994574,-2.945617 l 2.67635,-0.375342 q 0,-2.211252 -1.827751,-2.211252 -1.623761,0 -2.961937,1.093386 z m 2.67635,4.153238 q -1.109706,0.146876 -1.534006,0.554853 -0.41614,0.40798 -0.41614,1.142344 0,0.644608 0.456938,1.052589 0.456937,0.40798 1.207622,0.40798 1.044429,0 1.721675,-0.734364 0.677248,-0.734365 0.677248,-1.844072 v -0.864917 z" />
      <path
         id="path4536"
         style="font-style:normal;font-variant:normal;font-weight:normal;font-stretch:normal;font-family:'Microsoft YaHei';-inkscape-font-specification:'Microsoft YaHei';stroke-width:0.41777164"
         d="m 49.29306,73.980378 v 1.272897 H 47.693778 V 61.896007 h 1.599282 v 5.891233 h 0.03264 q 1.060749,-1.770635 3.10065,-1.770635 1.697197,0 2.692668,1.199462 1.003631,1.191303 1.003631,3.263841 0,2.284689 -1.126025,3.639183 -1.117866,1.346334 -2.986414,1.346334 -1.762475,0 -2.68451,-1.485047 z m -0.0082,-2.439721 q 0,1.093387 0.709885,1.85223 0.709886,0.750683 1.778793,0.750683 1.272899,0 1.990943,-0.979152 0.718046,-0.979154 0.718046,-2.708989 0,-1.427929 -0.669088,-2.26837 -0.669088,-0.848599 -1.827751,-0.848599 -1.174982,0 -1.941985,0.840441 -0.758843,0.840438 -0.758843,2.137815 z" />
    </g>
  </g>
</svg>

